<?xml version="1.0" encoding="UTF-8" standalone="no"?>
<svg
   xmlns:dc="http://purl.org/dc/elements/1.1/"
   xmlns:cc="http://creativecommons.org/ns#"
   xmlns:rdf="http://www.w3.org/1999/02/22-rdf-syntax-ns#"
   xmlns:svg="http://www.w3.org/2000/svg"
   xmlns="http://www.w3.org/2000/svg"
   viewBox="0 0 982.67999 472.44"
   height="472.44"
   width="982.67999"
   xml:space="preserve"
   id="svg2"
   version="1.1"><metadata
     id="metadata8"><rdf:RDF><cc:Work
         rdf:about=""><dc:format>image/svg+xml</dc:format><dc:type
           rdf:resource="http://purl.org/dc/dcmitype/StillImage" /></cc:Work></rdf:RDF></metadata><defs
     id="defs6" /><g
     transform="matrix(1.3333333,0,0,-1.3333333,0,472.44)"
     id="g10"><g
       transform="scale(0.1)"
       id="g12"><path
         id="path14"
         style="fill:#231f20;fill-opacity:1;fill-rule:nonzero;stroke:none"
         d="m 6432.39,741.25 12.61,56.039 c 7.02,31.152 171.78,761.551 177.12,784.661 11.29,47.72 45.88,74.94 95.32,74.94 h 255.88 l -150.3,-680.62 424.79,-0.77 -54.35,-234.25 h -761.07" /><path
         id="path16"
         style="fill:#231f20;fill-opacity:1;fill-rule:nonzero;stroke:none"
         d="m 5561.5,741.25 c 0,0 189.22,817.54 194.61,840.7 11.25,47.72 45.84,74.94 95.27,74.94 h 705.23 L 6505,1432.56 h -454.69 l -23.6,-111.86 h 428.09 l -54.91,-233.61 h -426.51 l -28.86,-116.16 h 462.64 L 6354.9,741.641 5854.04,741.25 H 5561.5" /><path
         id="path18"
         style="fill:#231f20;fill-opacity:1;fill-rule:nonzero;stroke:none"
         d="m 5008.46,978.898 c 161.94,0 284.2,132.162 284.2,307.242 0,81.14 -35.88,135.07 -211.16,135.07 h -79.28 L 4897.28,978.898 Z M 4507.21,741.25 c 0,0 188.45,817.54 193.84,840.7 11.2,47.72 45.88,74.94 95.15,74.94 h 375.1 c 381.95,0 462.21,-185.55 462.21,-341.43 0,-240.77 -198.24,-574.21 -570.31,-574.21 h -555.99" /><path
         id="path20"
         style="fill:#fbbc09;fill-opacity:1;fill-rule:nonzero;stroke:none"
         d="m 6765.84,930.371 150.27,680.589 h -198.67 c -31.3,0 -45.07,-16.42 -50.42,-39.53 -5.43,-23.09 -177.16,-784.141 -177.16,-784.141 h 667.08 l 33.06,142.313 -424.16,0.769" /><path
         id="path22"
         style="fill:#fbbc09;fill-opacity:1;fill-rule:nonzero;stroke:none"
         d="m 6468.35,1478.51 30.45,132.45 h -647.42 c -31.3,0 -45.02,-16.42 -50.41,-39.53 -5.48,-23.09 -181.65,-784.141 -181.65,-784.141 h 234.72 l 464.13,0.34 31.3,137.312 h -463.83 l 51.82,208.179 h 425.95 l 33.31,141.61 h -426.63 l 42.93,203.78 h 455.33" /><path
         id="path24"
         style="fill:#fbbc09;fill-opacity:1;fill-rule:nonzero;stroke:none"
         d="m 5008.46,932.91 h -169.42 l 126.88,534.35 h 115.58 c 131.96,0 257.17,-27.96 257.17,-181.07 0,-204.13 -147.53,-353.28 -330.21,-353.28 m 162.84,678.05 h -375.1 c -31.26,0 -44.9,-16.42 -50.25,-39.53 -5.52,-23.09 -180.92,-784.141 -180.92,-784.141 h 498.17 c 350.22,0 524.3,316.431 524.3,528.171 0,259.92 -242.71,295.5 -416.2,295.5" /><path
         id="path26"
         style="fill:#231f20;fill-opacity:1;fill-rule:nonzero;stroke:none"
         d="m 3464.34,1724.43 c 0,0 44.69,193.71 50.03,216.95 11.25,47.6 45.84,74.9 95.06,74.9 h 255.5 l -61.19,-291.85 h -339.4" /><path
         id="path28"
         style="fill:#fbbc09;fill-opacity:1;fill-rule:nonzero;stroke:none"
         d="m 3808.31,1970.29 h -198.84 c -31.34,0 -44.85,-16.29 -50.33,-39.45 -5.39,-23.22 -37.12,-160.51 -37.12,-160.51 h 244.43 l 41.86,199.96" /><path
         id="path30"
         style="fill:#231f20;fill-opacity:1;fill-rule:nonzero;stroke:none"
         d="m 675.527,711.98 c -369.035,0 -548.269,136.559 -548.269,417.48 v 46.06 h 413.398 l -2.953,-48.83 c 0,-0.3 -2.562,-63.61 38.149,-106.4 27.41,-28.88 70.086,-43.458 126.808,-43.458 182.699,0 190.867,129.608 190.867,130.908 0,21.64 0,78.96 -194.308,111.18 -336.578,55.76 -386.848,252.75 -386.848,365.08 0,225.08 247.953,401.32 564.52,401.32 318.999,0 501.939,-136.82 501.939,-375.43 V 1563.9 H 994.168 v 45.99 c 0,41.01 -43.555,121.47 -144.535,121.47 -105.195,0 -160.766,-36.86 -160.766,-106.48 -0.277,-22.15 -0.812,-77.78 208.68,-116.72 266.193,-49.54 390.153,-159.82 390.153,-347.29 0,-216.261 -191.57,-448.89 -612.173,-448.89" /><path
         id="path32"
         style="fill:#231f20;fill-opacity:1;fill-rule:nonzero;stroke:none"
         d="m 1712.61,711.98 c -255.93,0 -402.67,128.801 -402.67,353.62 0,216.5 132.2,625.78 632.64,625.78 371.45,0 382.2,-239.28 382.2,-266.5 0,-37.28 -4.38,-56.27 -5.73,-61.17 l -9.15,-33.89 h -319.62 l 1.58,47.51 c 0,0 -0.21,29.42 -21.14,50.44 -17,17.21 -44.88,25.98 -82.51,25.98 -160.57,0 -241.24,-240.17 -241.24,-374.59 0,-49.82 14.15,-133.609 109.17,-133.609 118.45,0 154.9,100.209 155.27,101.239 l 10.9,30.7 h 343.65 l -13.15,-56.38 c -2.95,-12.64 -77.29,-309.13 -540.2,-309.13" /><path
         id="path34"
         style="fill:#231f20;fill-opacity:1;fill-rule:nonzero;stroke:none"
         d="m 2803.24,741.641 87.07,346.559 h -254.65 l -82.94,-345.751 h -334.03 l 13.68,56.77 c 0,0 184.27,763.121 190.27,788.501 11.21,47.81 53.07,69.25 89.61,69.25 15.99,0 261.55,-1.04 261.55,-1.04 l -76.44,-329.33 h 247.21 c 17.15,73.63 55.55,237.86 59.67,255.73 11.27,47.7 45.97,74.88 95.28,74.88 h 256.65 l -213.1,-915.569 h -339.83" /><path
         id="path36"
         style="fill:#231f20;fill-opacity:1;fill-rule:nonzero;stroke:none"
         d="m 3225.32,741.25 c 0,0 195.04,817.54 200.36,840.7 11.27,47.72 45.89,74.94 95.15,74.94 h 256.7 L 3564.49,741.25 h -339.17" /><path
         id="path38"
         style="fill:#231f20;fill-opacity:1;fill-rule:nonzero;stroke:none"
         d="m 3651.59,741.25 c 0,0 189.39,817.54 194.74,840.7 11.29,47.72 45.84,74.94 95.14,74.94 h 705.44 l -51.61,-224.33 h -454.86 l -23.51,-111.86 h 428 l -54.82,-233.61 h -426.55 l -28.78,-116.16 h 462.6 l -52.3,-229.289 -500.78,-0.391 h -292.71" /><path
         id="path40"
         style="fill:#fbbc09;fill-opacity:1;fill-rule:nonzero;stroke:none"
         d="M 876.891,1939.33 C 574.16,1939.33 358.34,1771.62 358.34,1584 c 0,-140.09 85.719,-276.05 348.34,-319.69 205.168,-34.1 232.816,-102.13 232.816,-156.57 0,-31.34 -31.305,-176.951 -236.836,-176.951 -223.281,0 -210.945,198.671 -210.945,198.671 H 173.246 c 0,-225.839 126.531,-371.44 502.281,-371.44 403.883,0 566.123,220.671 566.123,402.85 0,149.73 -88.2,252.83 -352.529,302.03 -255.926,47.68 -246.391,129.33 -246.391,161.98 0,32.67 9.532,152.42 206.922,152.42 126.618,0 190.488,-102.05 190.488,-167.41 h 292.7 c 0,241.44 -203.93,329.44 -455.949,329.44" /><path
         id="path42"
         style="fill:#fbbc09;fill-opacity:1;fill-rule:nonzero;stroke:none"
         d="m 2274.69,1375.77 c 0,0 4.12,15.08 4.12,49.11 0,33.87 -13.68,220.42 -336.23,220.42 -483.12,0 -586.63,-409.36 -586.63,-579.7 0,-303.541 284.52,-307.58 356.66,-307.58 421.56,0 491.75,258 495.39,273.52 h -253.17 c 0,0 -46.25,-132.071 -198.69,-132.071 -152.49,0 -155.16,157.861 -155.16,179.691 0,145.64 88.49,420.45 287.23,420.45 153.68,0 149.64,-123.84 149.64,-123.84 h 236.84" /><path
         id="path44"
         style="fill:#fbbc09;fill-opacity:1;fill-rule:nonzero;stroke:none"
         d="m 3099.52,1611.3 c -31.28,0 -44.99,-16.42 -50.38,-39.55 -5.53,-23.05 -68.09,-291.14 -68.09,-291.14 H 2639.4 l 76.55,329.54 c 0,0 -187.71,0.81 -203.7,0.81 -16.14,0 -38.87,-8.4 -44.9,-33.82 -5.86,-25.3 -190.25,-788.66 -190.25,-788.66 h 239.32 l 82.87,345.71 h 349.94 l -87.06,-346.561 h 244.3 l 191.76,823.671 h -198.71" /><path
         id="path46"
         style="fill:#fbbc09;fill-opacity:1;fill-rule:nonzero;stroke:none"
         d="m 3520.83,1610.96 c -31.13,0 -44.86,-16.42 -50.33,-39.53 -5.43,-23.09 -186.85,-784.141 -186.85,-784.141 h 244.23 l 191.66,823.671 h -198.71" /><path
         id="path48"
         style="fill:#fbbc09;fill-opacity:1;fill-rule:nonzero;stroke:none"
         d="m 4558.53,1478.51 30.53,132.45 h -647.59 c -31.21,0 -44.94,-16.42 -50.33,-39.53 -5.38,-23.09 -181.65,-784.141 -181.65,-784.141 h 234.68 l 464.26,0.34 31.3,137.312 h -463.79 l 51.7,208.179 h 426.03 l 33.23,141.61 h -426.76 l 43.06,203.78 h 455.33" /><path
         id="path50"
         style="fill:#231f20;fill-opacity:1;fill-rule:nonzero;stroke:none"
         d="m 4731.84,3148.95 c -74.96,-5.18 -210.89,-20.2 -311.01,-41.15 -84.09,-17.6 -248.9,-62.35 -375.18,-118.79 -113.65,-50.81 -365.06,-187.8 -406.27,-206.71 -41.31,-19.17 -383.76,-190.57 -450.52,-219.24 -66.78,-28.58 -170.76,-87.53 -263.94,-75.61 -62.94,8.06 -97.71,17.81 -131.77,48.36 -32.66,29.26 -43.66,43.46 -64.84,74.94 -29.43,43.89 -178.94,239.07 -207.75,288.49 -19.21,33.07 -208.45,342.41 -247.74,395.01 -25.42,33.91 -92.65,91.36 -133.47,103.45 -123.36,36.4 -202.13,-82.79 -226.21,-108.57 -32.17,-34.59 -95.38,-138.7 -127.34,-183.02 -32.03,-44.28 -125.62,-161.57 -154.89,-196.93 -40.79,-49.18 -184.68,-263.74 -210.75,-295.1 -20.37,-24.61 -43.83,-47.33 -69.21,-46.39 -22.17,0.72 -74.12,49.36 -93.21,78.06 -19.01,28.54 -60.68,87.25 -107.06,137.8 -33.07,36.1 -177.153,183.33 -221.629,218.17 -44.465,35.08 -75.199,25.71 -114.621,9.5 -39.422,-16.25 -109.207,-89.27 -137.934,-124.11 -28.574,-35.04 -292.129,-295.38 -327.137,-333.48 -34.925,-38.12 -108.472,-123.77 -120.566,-139.78 -12.328,-15.99 -22.34,-31.77 -22.34,-47.65 0,-15.8 25.426,-47.61 63.602,-53.87 37.992,-6.41 91.324,-9.55 112.558,0.92 16.535,8.14 33.516,24.42 49.317,46.77 15.886,22.16 52.074,73.86 69.715,91.13 26.546,25.93 262.906,254.92 281.914,280.32 19.035,25.32 42.332,47.75 61.3,47.75 19.09,0 31.778,-12.77 38.079,-22.43 6.402,-9.41 29.8,-38.72 38.773,-48.78 13.113,-14.78 47.73,-49.22 60.043,-62.26 29.456,-31.03 149.526,-212.08 168.056,-235.03 18.49,-22.92 50.8,-60.32 66.7,-82.51 18.97,-26.66 54.22,-59.97 69.85,-70.09 20.64,-12.92 48.14,-26.68 74.27,-23.26 28.64,3.63 57.86,20.25 73.7,42.39 15.88,22.51 75.5,103.82 95.53,133.2 18.58,26.77 67.76,79.62 109.02,152.61 41.26,73.15 104.89,174.61 142.9,219.14 38.15,44.39 102,125.91 133.69,173.51 31.68,47.64 58.41,80.61 77.6,105.95 22.97,30.39 41.14,38.35 61.89,47.72 25.25,11.3 60.45,5.99 76.11,-7.19 20.23,-17.24 77.16,-100.06 115.27,-169.88 38.13,-69.85 158.49,-226.55 180.22,-255.53 30.1,-40.26 107.04,-132.61 135.65,-170.84 28.67,-38 164.39,-217.86 195.18,-249.77 29.26,-30.42 86.51,-51.53 143.69,-57.97 57.11,-6.3 157.69,0.34 247.7,49.59 89.84,49.47 383.21,220.28 471.63,266.6 70.29,36.75 326.75,188.7 437.53,248.14 35.56,19.08 125.34,67.78 146.14,77.38 68.05,31.84 171.18,74.33 226.01,93.18 111.88,38.42 249.3,53.57 364.52,65.02 63.58,6.35 196.51,13.35 266.02,27.38 20.6,4.12 69.92,23.33 69.92,56.13 0,81.74 -318.95,72.81 -398.71,67.33" /><path
         id="path52"
         style="fill:#fbbc09;fill-opacity:1;fill-rule:nonzero;stroke:none"
         d="m 4712.63,3181.12 c -74.97,-5.17 -210.89,-20.19 -311.02,-41.14 -84.08,-17.61 -248.89,-62.36 -375.17,-118.79 -113.65,-50.81 -365.06,-187.81 -406.27,-206.71 -41.32,-19.18 -383.76,-190.57 -450.52,-219.25 -66.78,-28.57 -170.76,-87.53 -263.94,-75.61 -62.94,8.06 -97.71,17.82 -131.77,48.36 -32.66,29.26 -43.66,43.46 -64.85,74.95 -29.42,43.88 -178.93,239.07 -207.75,288.48 -19.21,33.07 -208.45,342.42 -247.73,395.02 -25.43,33.9 -92.65,91.36 -133.47,103.45 -123.36,36.39 -202.13,-82.79 -226.21,-108.58 -32.17,-34.58 -95.38,-138.7 -127.34,-183.02 -32.03,-44.28 -125.62,-161.57 -154.9,-196.92 -40.78,-49.18 -184.67,-263.74 -210.74,-295.11 -20.37,-24.61 -43.84,-47.32 -69.21,-46.39 -22.17,0.72 -74.12,49.37 -93.21,78.06 -19.01,28.54 -60.68,87.26 -107.06,137.8 -33.07,36.1 -177.154,183.33 -221.634,218.17 -44.461,35.08 -75.199,25.72 -114.617,9.5 -39.422,-16.24 -109.207,-89.26 -137.934,-124.1 -28.574,-35.05 -292.129,-295.38 -327.14,-333.49 -34.926,-38.11 -108.473,-123.77 -120.563,-139.77 -12.328,-15.99 -22.34,-31.78 -22.34,-47.65 0,-15.8 25.422,-47.61 63.602,-53.88 37.988,-6.4 91.324,-9.55 112.558,0.92 16.536,8.14 33.512,24.42 49.317,46.78 15.886,22.15 52.074,73.85 69.715,91.12 26.546,25.93 262.906,254.92 281.91,280.32 19.039,25.33 42.336,47.75 61.304,47.75 19.086,0 31.778,-12.77 38.075,-22.42 6.406,-9.42 29.8,-38.72 38.777,-48.79 13.109,-14.78 47.73,-49.21 60.043,-62.26 29.457,-31.03 149.527,-212.07 168.057,-235.03 18.49,-22.92 50.8,-60.31 66.7,-82.5 18.97,-26.67 54.22,-59.98 69.85,-70.09 20.64,-12.93 48.14,-26.69 74.26,-23.26 28.65,3.62 57.87,20.24 73.7,42.38 15.89,22.51 75.51,103.83 95.54,133.2 18.57,26.77 67.75,79.63 109.01,152.61 41.26,73.16 104.9,174.61 142.91,219.15 38.14,44.39 102,125.91 133.69,173.5 31.67,47.65 58.41,80.62 77.6,105.96 22.97,30.39 41.14,38.34 61.88,47.71 25.26,11.31 60.46,5.99 76.12,-7.19 20.23,-17.23 77.16,-100.06 115.27,-169.88 38.13,-69.85 158.49,-226.55 180.21,-255.53 30.11,-40.26 107.05,-132.6 135.65,-170.83 28.68,-38.01 164.4,-217.87 195.19,-249.78 29.25,-30.41 86.5,-51.53 143.69,-57.97 57.11,-6.3 157.68,0.34 247.7,49.59 89.84,49.47 383.21,220.29 471.63,266.6 70.29,36.75 326.74,188.7 437.53,248.15 35.56,19.07 125.33,67.77 146.14,77.38 68.05,31.84 171.17,74.33 226.01,93.18 111.88,38.41 249.3,53.57 364.51,65.01 63.59,6.35 196.52,13.35 266.03,27.38 20.6,4.13 69.92,23.33 69.92,56.13 0,81.74 -318.95,72.82 -398.71,67.33" /><path
         id="path54"
         style="fill:#231f20;fill-opacity:1;fill-rule:nonzero;stroke:none"
         d="M 2470.39,401.059 H 2268.2 v 155.57 h -51.51 V 196.82 h 51.51 v 156.59 h 202.19 V 196.82 h 51.51 v 359.809 h -51.51 z m 330.27,-83.957 c 0,36.91 -9.36,66.359 -28.07,88.339 -18.72,21.981 -43.78,32.969 -75.21,32.969 -32.62,0 -59.15,-11.289 -79.58,-33.871 -20.44,-22.578 -30.65,-51.898 -30.65,-87.957 0,-24.043 4.85,-45.203 14.55,-63.48 9.7,-18.293 22.62,-32.84 38.77,-43.661 16.13,-10.82 37.25,-16.222 63.35,-16.222 19.06,0 35.68,2.062 49.84,6.179 14.17,4.122 28.46,10.981 42.88,20.602 v 45.852 c -26.1,-19.243 -54.6,-28.852 -85.5,-28.852 -22.15,0 -40.23,6.699 -54.22,20.09 -14,13.39 -21.59,31.422 -22.79,54.09 h 166.63 z m -144.61,65.418 c 10.73,10.128 24.51,15.191 41.33,15.191 16.83,0 30.22,-5.063 40.18,-15.191 9.96,-10.129 15.54,-24.559 16.74,-43.27 h -119.24 c 3.26,18.711 10.25,33.141 20.99,43.27 z m 352.3,-2.711 c -1.11,7.132 -3.73,14.25 -7.85,21.382 -4.12,7.118 -8.76,12.84 -13.91,17.129 -15.45,13.391 -35.97,20.09 -61.55,20.09 -34.17,0 -60.36,-10.73 -78.56,-32.199 v -51.25 c 24.21,26.437 49.11,39.66 74.69,39.66 28.5,0 42.76,-14.25 42.76,-42.75 V 339.25 l -60.01,-20.609 c -19.75,-6.86 -34.99,-16.18 -45.72,-27.942 -10.73,-11.758 -16.1,-25.109 -16.1,-40.051 0,-16.476 5.5,-30.179 16.49,-41.078 10.98,-10.91 24.72,-16.351 41.2,-16.351 22.5,0 43.7,7.722 63.62,23.179 3.61,-15.796 15.45,-23.699 35.54,-23.699 7.04,0 13.78,1.25 20.22,3.731 6.44,2.492 14.98,7.172 25.63,14.039 v 28.59 c -12.02,-8.411 -20.86,-12.618 -26.53,-12.618 -5.5,0 -8.24,4.028 -8.24,12.098 V 339.25 c 0,19.922 -0.56,33.441 -1.68,40.559 z M 2922.46,225.41 c -9.96,0 -18.07,3.09 -24.34,9.27 -6.27,6.179 -9.4,14.172 -9.4,23.949 0,9.621 3.3,17.652 9.92,24.09 6.6,6.429 17.9,12.832 33.86,19.179 l 31.43,12.114 V 243.699 C 2951.22,231.5 2937.4,225.41 2922.46,225.41 Z m 128.37,166.121 h 41.2 V 286.449 c 0,-21.469 0.99,-36.019 2.97,-43.66 1.97,-7.641 4.41,-13.82 7.34,-18.539 2.91,-4.719 6.6,-8.969 11.07,-12.75 14.25,-12.531 32.11,-18.801 53.57,-18.801 21.29,0 40.95,5.063 58.98,15.199 v 43.782 c -18.71,-11.16 -36.48,-16.739 -53.31,-16.739 -22.5,0 -33.74,13.539 -33.74,40.618 v 115.972 h 74.95 v 42.239 h -74.95 v 48.941 l -88.08,-86.539 z m 219.62,133.551 c -5.5,-5.59 -8.25,-11.98 -8.25,-19.191 0,-7.391 2.75,-13.871 8.25,-19.45 5.49,-5.582 11.84,-8.371 19.05,-8.371 7.73,0 14.34,2.75 19.84,8.239 5.49,5.5 8.24,12.023 8.24,19.582 0,7.718 -2.75,14.25 -8.24,19.57 -5.5,5.32 -12.11,7.988 -19.84,7.988 -7.21,0 -13.56,-2.801 -19.05,-8.367 z m -4.13,-328.262 h 46.88 v 236.95 h -46.88 z m 114.85,236.95 V 196.82 h 47.91 v 169.211 c 15.45,22.149 34.25,33.231 56.4,33.231 17.34,0 29.71,-5.203 37.09,-15.582 7.38,-10.391 11.08,-27.688 11.08,-51.899 V 196.82 h 46.87 v 135.481 c 0,28.84 -3.31,49.918 -9.91,63.23 -6.62,13.301 -16.28,23.77 -28.98,31.418 -12.71,7.641 -26.44,11.461 -41.21,11.461 -26.62,0 -50.4,-11.59 -71.34,-34.769 v 30.129 z m 305.27,-156.848 c -11.51,-2.922 -20.65,-7.473 -27.43,-13.652 -6.79,-6.18 -10.18,-13.051 -10.18,-20.598 0,-9.961 7.9,-20.012 23.7,-30.141 -39.67,-9.269 -59.5,-29.961 -59.5,-62.07 0,-22.66 10.09,-40.731 30.26,-54.211 20.18,-13.4805 47.18,-20.2187 81.01,-20.2187 33.48,0 60.22,6.6875 80.22,20.0898 20.01,13.3909 30.01,31.3279 30.01,53.8279 0,17.172 -5.67,31.422 -17,42.75 -6.7,6.699 -14.21,11.852 -22.53,15.449 -8.33,3.614 -27.01,8.59 -56.02,14.942 -17.35,3.781 -29.32,7.43 -35.93,10.949 -6.61,3.512 -9.92,8.02 -9.92,13.52 0,9.613 8.84,15.711 26.53,18.293 25.24,3.769 43.4,8.839 54.47,15.187 11.08,6.352 20.13,15.5 27.18,27.43 7.03,11.929 10.56,24.082 10.56,36.453 0,9.949 -1.81,18.797 -5.41,26.519 -3.61,7.731 -10.05,16.309 -19.32,25.758 h 47.91 v 36.571 h -97.62 c -31.94,0 -57.14,-7.34 -75.59,-22.02 -18.46,-14.68 -27.69,-34.641 -27.69,-59.879 0,-34.512 17.43,-59.5 52.29,-74.949 z m 69.28,103.797 c 8.92,-8.25 13.39,-18.547 13.39,-30.91 0,-12.188 -4.42,-22.368 -13.26,-30.52 -8.85,-8.16 -19.88,-12.238 -33.1,-12.238 -13.39,0 -24.47,4 -33.22,11.98 -8.76,7.989 -13.14,18.071 -13.14,30.258 0,12.02 4.46,22.32 13.39,30.91 8.93,8.582 19.75,12.883 32.46,12.883 13.39,0 24.55,-4.121 33.48,-12.363 z m 11.33,-205.399 c 14.42,-6.961 21.63,-15.929 21.63,-26.922 0,-11.156 -5.71,-19.789 -17.12,-25.878 -11.42,-6.098 -27.52,-9.149 -48.29,-9.149 -43.96,0 -65.94,12.199 -65.94,36.578 0,10.473 5.02,19.051 15.07,25.75 10.04,6.699 22.96,10.051 38.76,10.051 22.83,0 41.47,-3.48 55.89,-10.43 z m 101.36,69.918 c -6.01,-6.008 -9.01,-13.386 -9.01,-22.148 0,-8.59 3,-15.801 9.01,-21.629 6.01,-5.84 13.39,-8.762 22.15,-8.762 8.93,0 16.44,2.922 22.54,8.762 6.09,5.828 9.14,13.039 9.14,21.629 0,8.762 -3.09,16.14 -9.27,22.148 -6.18,6.012 -13.65,9.024 -22.41,9.024 -8.76,0 -16.14,-3.012 -22.15,-9.024 z m 350.05,58.723 -108.21,252.668 h -51.86 l 155.06,-361.348 h 11.67 l 152.13,361.348 h -51.3 z m 363.09,13.141 c 0,36.91 -9.37,66.359 -28.08,88.339 -18.72,21.981 -43.78,32.969 -75.2,32.969 -32.63,0 -59.16,-11.289 -79.59,-33.871 -20.43,-22.578 -30.65,-51.898 -30.65,-87.957 0,-24.043 4.85,-45.203 14.55,-63.48 9.7,-18.293 22.62,-32.84 38.77,-43.661 16.13,-10.82 37.25,-16.222 63.35,-16.222 19.06,0 35.68,2.062 49.84,6.179 14.17,4.122 28.46,10.981 42.88,20.602 v 45.852 c -26.1,-19.243 -54.6,-28.852 -85.5,-28.852 -22.15,0 -40.23,6.699 -54.22,20.09 -14,13.39 -21.59,31.422 -22.79,54.09 h 166.64 z m -144.62,65.418 c 10.73,10.128 24.51,15.191 41.34,15.191 16.82,0 30.21,-5.063 40.17,-15.191 9.96,-10.129 15.54,-24.559 16.75,-43.27 h -119.25 c 3.26,18.711 10.25,33.141 20.99,43.27 z m 200.34,51.25 V 196.82 h 47.9 v 169.211 c 15.46,22.149 34.26,33.231 56.41,33.231 17.34,0 29.7,-5.203 37.08,-15.582 7.39,-10.391 11.08,-27.688 11.08,-51.899 V 196.82 h 46.87 v 135.481 c 0,28.84 -3.3,49.918 -9.91,63.23 -6.61,13.301 -16.27,23.77 -28.98,31.418 -12.7,7.641 -26.44,11.461 -41.2,11.461 -26.62,0 -50.4,-11.59 -71.35,-34.769 v 30.129 z m 233.49,-42.239 h 41.21 V 286.449 c 0,-21.469 0.99,-36.019 2.96,-43.66 1.97,-7.641 4.42,-13.82 7.34,-18.539 2.92,-4.719 6.61,-8.969 11.08,-12.75 14.25,-12.531 32.1,-18.801 53.57,-18.801 21.29,0 40.95,5.063 58.98,15.199 v 43.782 c -18.72,-11.16 -36.49,-16.739 -53.31,-16.739 -22.5,0 -33.74,13.539 -33.74,40.618 v 115.972 h 74.94 v 42.239 h -74.94 v 48.941 l -88.09,-86.539 z m 219.62,133.551 c -5.5,-5.59 -8.24,-11.98 -8.24,-19.191 0,-7.391 2.74,-13.871 8.24,-19.45 5.49,-5.582 11.85,-8.371 19.06,-8.371 7.73,0 14.33,2.75 19.83,8.239 5.5,5.5 8.24,12.023 8.24,19.582 0,7.718 -2.74,14.25 -8.24,19.57 -5.5,5.32 -12.1,7.988 -19.83,7.988 -7.21,0 -13.57,-2.801 -19.06,-8.367 z m -4.12,-328.262 h 46.88 v 236.95 h -46.88 z m 114.85,236.95 V 196.82 h 47.9 v 169.211 c 15.46,22.149 34.26,33.231 56.41,33.231 17.34,0 29.7,-5.203 37.09,-15.582 7.38,-10.391 11.07,-27.688 11.07,-51.899 V 196.82 h 46.88 v 135.481 c 0,28.84 -3.31,49.918 -9.92,63.23 -6.61,13.301 -16.27,23.77 -28.97,31.418 -12.71,7.641 -26.45,11.461 -41.21,11.461 -26.62,0 -50.4,-11.59 -71.35,-34.769 v 30.129 z m 305.26,-156.848 c -11.5,-2.922 -20.65,-7.473 -27.43,-13.652 -6.78,-6.18 -10.17,-13.051 -10.17,-20.598 0,-9.961 7.89,-20.012 23.69,-30.141 -39.66,-9.269 -59.49,-29.961 -59.49,-62.07 0,-22.66 10.08,-40.731 30.26,-54.211 20.17,-13.4805 47.17,-20.2187 81,-20.2187 33.48,0 60.23,6.6875 80.23,20.0898 20,13.3909 30.01,31.3279 30.01,53.8279 0,17.172 -5.67,31.422 -17,42.75 -6.7,6.699 -14.21,11.852 -22.54,15.449 -8.33,3.614 -27,8.59 -56.02,14.942 -17.34,3.781 -29.32,7.43 -35.93,10.949 -6.61,3.512 -9.91,8.02 -9.91,13.52 0,9.613 8.84,15.711 26.53,18.293 25.24,3.769 43.39,8.839 54.47,15.187 11.07,6.352 20.13,15.5 27.17,27.43 7.04,11.929 10.56,24.082 10.56,36.453 0,9.949 -1.8,18.797 -5.41,26.519 -3.6,7.731 -10.04,16.309 -19.31,25.758 h 47.9 v 36.571 h -97.61 c -31.94,0 -57.14,-7.34 -75.6,-22.02 -18.46,-14.68 -27.68,-34.641 -27.68,-59.879 0,-34.512 17.42,-59.5 52.28,-74.949 z m 69.28,103.797 c 8.93,-8.25 13.4,-18.547 13.4,-30.91 0,-12.188 -4.43,-22.368 -13.27,-30.52 -8.84,-8.16 -19.87,-12.238 -33.09,-12.238 -13.4,0 -24.47,4 -33.23,11.98 -8.76,7.989 -13.13,18.071 -13.13,30.258 0,12.02 4.46,22.32 13.39,30.91 8.93,8.582 19.74,12.883 32.45,12.883 13.39,0 24.55,-4.121 33.48,-12.363 z m 11.34,-205.399 c 14.42,-6.961 21.63,-15.929 21.63,-26.922 0,-11.156 -5.71,-19.789 -17.13,-25.878 -11.42,-6.098 -27.52,-9.149 -48.29,-9.149 -43.96,0 -65.93,12.199 -65.93,36.578 0,10.473 5.02,19.051 15.06,25.75 10.05,6.699 22.97,10.051 38.77,10.051 22.83,0 41.46,-3.48 55.89,-10.43 z m 101.36,69.918 c -6.02,-6.008 -9.02,-13.386 -9.02,-22.148 0,-8.59 3,-15.801 9.02,-21.629 6,-5.84 13.39,-8.762 22.15,-8.762 8.92,0 16.43,2.922 22.53,8.762 6.09,5.828 9.14,13.039 9.14,21.629 0,8.762 -3.09,16.14 -9.27,22.148 -6.18,6.012 -13.65,9.024 -22.4,9.024 -8.76,0 -16.15,-3.012 -22.15,-9.024 z m 245.47,-48.418 h 213.51 v 46.879 h -162 v 312.93 h -51.51 z m 260.14,328.262 c -5.49,-5.59 -8.24,-11.98 -8.24,-19.191 0,-7.391 2.75,-13.871 8.24,-19.45 5.5,-5.582 11.85,-8.371 19.06,-8.371 7.73,0 14.34,2.75 19.83,8.239 5.5,5.5 8.25,12.023 8.25,19.582 0,7.718 -2.75,14.25 -8.25,19.57 -5.49,5.32 -12.1,7.988 -19.83,7.988 -7.21,0 -13.56,-2.801 -19.06,-8.367 z m -4.12,-328.262 h 46.88 v 236.95 h -46.88 z m 200.93,91.18 -63.95,145.77 h -51.3 l 107.16,-241.071 h 15.86 L 6503.2,433.77 h -50.83 z m 155.45,237.082 c -5.49,-5.59 -8.24,-11.98 -8.24,-19.191 0,-7.391 2.75,-13.871 8.24,-19.45 5.5,-5.582 11.85,-8.371 19.06,-8.371 7.73,0 14.34,2.75 19.84,8.239 5.49,5.5 8.24,12.023 8.24,19.582 0,7.718 -2.75,14.25 -8.24,19.57 -5.5,5.32 -12.11,7.988 -19.84,7.988 -7.21,0 -13.56,-2.801 -19.06,-8.367 z M 6542.1,196.82 h 46.88 v 236.95 h -46.88 z m 114.85,236.95 V 196.82 h 47.91 v 169.211 c 15.45,22.149 34.25,33.231 56.4,33.231 17.34,0 29.71,-5.203 37.09,-15.582 7.38,-10.391 11.08,-27.688 11.08,-51.899 V 196.82 h 46.87 v 135.481 c 0,28.84 -3.31,49.918 -9.92,63.23 -6.61,13.301 -16.27,23.77 -28.97,31.418 -12.71,7.641 -26.44,11.461 -41.21,11.461 -26.62,0 -50.4,-11.59 -71.34,-34.769 v 30.129 z m 305.26,-156.848 c -11.5,-2.922 -20.64,-7.473 -27.42,-13.652 -6.79,-6.18 -10.18,-13.051 -10.18,-20.598 0,-9.961 7.9,-20.012 23.7,-30.141 -39.67,-9.269 -59.5,-29.961 -59.5,-62.07 0,-22.66 10.09,-40.731 30.26,-54.211 20.18,-13.4805 47.18,-20.2187 81.01,-20.2187 33.48,0 60.22,6.6875 80.22,20.0898 20,13.3909 30.01,31.3279 30.01,53.8279 0,17.172 -5.67,31.422 -17,42.75 -6.7,6.699 -14.21,11.852 -22.54,15.449 -8.33,3.614 -27,8.59 -56.01,14.942 -17.35,3.781 -29.32,7.43 -35.93,10.949 -6.62,3.512 -9.92,8.02 -9.92,13.52 0,9.613 8.84,15.711 26.53,18.293 25.24,3.769 43.4,8.839 54.47,15.187 11.08,6.352 20.13,15.5 27.17,27.43 7.04,11.929 10.56,24.082 10.56,36.453 0,9.949 -1.8,18.797 -5.4,26.519 -3.61,7.731 -10.05,16.309 -19.32,25.758 h 47.9 v 36.571 h -97.61 c -31.94,0 -57.14,-7.34 -75.59,-22.02 -18.46,-14.68 -27.69,-34.641 -27.69,-59.879 0,-34.512 17.43,-59.5 52.28,-74.949 z m 69.29,103.797 c 8.92,-8.25 13.39,-18.547 13.39,-30.91 0,-12.188 -4.42,-22.368 -13.26,-30.52 -8.85,-8.16 -19.88,-12.238 -33.1,-12.238 -13.39,0 -24.47,4 -33.22,11.98 -8.76,7.989 -13.14,18.071 -13.14,30.258 0,12.02 4.46,22.32 13.39,30.91 8.93,8.582 19.75,12.883 32.46,12.883 13.39,0 24.55,-4.121 33.48,-12.363 z m 11.33,-205.399 c 14.42,-6.961 21.63,-15.929 21.63,-26.922 0,-11.156 -5.71,-19.789 -17.12,-25.878 -11.42,-6.098 -27.52,-9.149 -48.29,-9.149 -43.96,0 -65.94,12.199 -65.94,36.578 0,10.473 5.02,19.051 15.07,25.75 10.04,6.699 22.96,10.051 38.76,10.051 22.83,0 41.47,-3.48 55.89,-10.43 z m 101.36,69.918 c -6.01,-6.008 -9.01,-13.386 -9.01,-22.148 0,-8.59 3,-15.801 9.01,-21.629 6.01,-5.84 13.39,-8.762 22.15,-8.762 8.92,0 16.44,2.922 22.54,8.762 6.09,5.828 9.14,13.039 9.14,21.629 0,8.762 -3.09,16.14 -9.27,22.148 -6.18,6.012 -13.65,9.024 -22.41,9.024 -8.76,0 -16.14,-3.012 -22.15,-9.024" /></g></g></svg>