<svg xmlns="http://www.w3.org/2000/svg" height="472.44" width="982.68"><path d="M857.652 373.607l1.68-7.472c.937-4.154 22.905-101.54 23.617-104.622 1.5-6.362 6.11-9.992 12.71-9.992h34.11l-20.04 90.75 56.64.11-7.25 31.24H857.65m-116.12 0s25.23-109 25.95-112.09c1.5-6.36 6.11-9.99 12.703-9.99h94.03l-6.88 29.92H806.71l-3.148 14.92h57.08l-7.32 31.15h-56.87L792.605 343h61.685l-6.968 30.574-66.78.05h-39.007m-73.74-31.686c21.592 0 37.893-17.62 37.893-40.965 0-10.82-4.784-18.01-28.155-18.01h-10.57l-13.993 58.97zm-66.835 31.68s25.13-109.01 25.85-112.097c1.493-6.36 6.117-9.99 12.686-9.99h50.014c50.926 0 61.628 24.74 61.628 45.53 0 32.11-26.432 76.56-76.042 76.56H600.96" fill="#231f20"/><path d="M902.112 348.39l20.036-90.745h-26.49c-4.173 0-6.01 2.19-6.722 5.27-.724 3.08-23.62 104.553-23.62 104.553h88.943l4.4-18.975-56.56-.102m-39.67-73.08l4.06-17.66h-86.32c-4.18 0-6.01 2.19-6.72 5.27-.73 3.08-24.22 104.56-24.22 104.56h31.29l61.88-.04 4.17-18.31h-61.84l6.91-27.76h56.79l4.44-18.88H796l5.725-27.17h60.71m-194.65 72.75H645.2l16.92-71.24h15.41c17.594 0 34.29 3.73 34.29 24.14 0 27.22-19.67 47.11-44.03 47.11m21.713-90.4H639.49c-4.168 0-5.986 2.19-6.7 5.27-.736 3.08-24.122 104.56-24.122 104.56h66.43c46.7 0 69.91-42.19 69.91-70.42 0-34.65-32.36-39.4-55.49-39.4" fill="#fbbc09"/><path d="M461.912 242.516s5.96-25.828 6.67-28.927c1.5-6.35 6.113-9.99 12.675-9.99h34.067l-8.16 38.91h-45.252" fill="#231f20"/><path d="M507.775 209.735h-26.512c-4.18 0-5.98 2.172-6.71 5.26-.72 3.096-4.95 21.4-4.95 21.4h32.59l5.582-26.66" fill="#fbbc09"/><path d="M90.07 377.51c-49.204 0-73.102-18.21-73.102-55.665v-6.14h55.12l-.394 6.51c0 .04-.342 8.48 5.086 14.186 3.655 3.86 9.345 5.8 16.908 5.8 24.36 0 25.45-17.28 25.45-17.45 0-2.88 0-10.52-25.91-14.82-44.876-7.43-51.58-33.7-51.58-48.67 0-30.01 33.062-53.51 75.27-53.51 42.534 0 66.926 18.25 66.926 50.06v6.14h-51.288v-6.14c0-5.46-5.808-16.19-19.272-16.19-14.026 0-21.435 4.92-21.435 14.2-.04 2.95-.11 10.37 27.82 15.56 35.49 6.61 52.02 21.31 52.02 46.31 0 28.83-25.54 59.85-81.63 59.85m138.28 0c-34.13 0-53.69-17.18-53.69-47.15 0-28.87 17.62-83.44 84.35-83.44 49.52 0 50.96 31.91 50.96 35.54 0 4.97-.59 7.5-.77 8.16l-1.22 4.52h-42.61l.21-6.33s-.03-3.92-2.82-6.72c-2.27-2.29-5.99-3.46-11-3.46-21.4 0-32.16 32.02-32.16 49.95 0 6.65 1.89 17.82 14.56 17.82 15.79 0 20.65-13.36 20.7-13.5l1.45-4.09h45.82l-1.76 7.52c-.4 1.68-10.31 41.22-72.03 41.22m145.41-3.95l11.61-46.21H351.4l-11.06 46.1H295.8l1.826-7.57s24.57-101.75 25.37-105.13c1.49-6.38 7.07-9.24 11.94-9.24 2.13 0 34.87.14 34.87.14l-10.19 43.91h32.96c2.29-9.82 7.41-31.71 7.958-34.1 1.505-6.36 6.13-9.98 12.706-9.98h34.22L419.05 373.6h-45.31m56.28.05s26.007-109.01 26.717-112.1c1.5-6.36 6.12-9.99 12.685-9.99h34.23l-28.4 122.08h-45.22m56.837 0l25.96-112.096c1.51-6.36 6.11-9.99 12.69-9.99h94.05l-6.88 29.914h-60.65l-3.14 14.91h57.07l-7.31 31.15H541.8L537.96 343h61.68l-6.97 30.57-66.77.05h-39.03" fill="#231f20"/><path d="M116.92 213.863c-40.365 0-69.14 22.36-69.14 47.377 0 18.68 11.428 36.807 46.444 42.625 27.356 4.547 31.042 13.618 31.042 20.876 0 4.18-4.174 23.6-31.578 23.6-29.77 0-28.126-26.49-28.126-26.49H23.1c0 30.11 16.87 49.53 66.97 49.53 53.85 0 75.483-29.42 75.483-53.71 0-19.96-11.76-33.71-47.004-40.27-34.13-6.36-32.86-17.24-32.86-21.6 0-4.35 1.27-20.32 27.59-20.32 16.88 0 25.4 13.61 25.4 22.32h39.02c0-32.19-27.19-43.92-60.8-43.92m186.37 75.14s.55-2.01.55-6.55c0-4.51-1.83-29.39-44.83-29.39-64.42 0-78.22 54.58-78.22 77.3 0 40.48 37.93 41.01 47.55 41.01 56.21 0 65.56-34.4 66.05-36.47h-33.74s-6.17 17.61-26.49 17.61c-20.33 0-20.69-21.04-20.69-23.95 0-19.42 11.8-56.06 38.3-56.06 20.49 0 19.95 16.52 19.95 16.52h31.58m109.98-31.41c-4.17 0-6 2.19-6.72 5.28-.74 3.08-9.08 38.82-9.08 38.82h-45.55l10.2-43.94s-25.03-.11-27.16-.11c-2.15 0-5.19 1.12-5.99 4.51-.78 3.38-25.37 105.16-25.37 105.16h31.91l11.05-46.1h46.65l-11.6 46.21h32.57l25.56-109.82h-26.49m56.17.04c-4.15 0-5.98 2.19-6.71 5.27-.73 3.08-24.92 104.56-24.92 104.56h32.56l25.56-109.83h-26.5m138.4 17.62l4.07-17.66h-86.34c-4.17 0-6 2.19-6.71 5.27-.72 3.08-24.22 104.56-24.22 104.56h31.29l61.9-.04 4.17-18.31h-61.84l6.89-27.76h56.8l4.43-18.88h-56.9l5.74-27.17h60.71" fill="#fbbc09"/><path d="M630.912 52.58c-9.995.69-28.12 2.693-41.468 5.487-11.212 2.346-33.187 8.313-50.024 15.838-15.153 6.775-48.675 25.04-54.17 27.562-5.507 2.556-51.167 25.41-60.07 29.232-8.903 3.81-22.767 11.67-35.19 10.08-8.393-1.08-13.03-2.38-17.57-6.45-4.355-3.9-5.82-5.8-8.645-9.99-3.924-5.86-23.86-31.88-27.7-38.47-2.562-4.41-27.794-45.66-33.032-52.67-3.39-4.52-12.354-12.18-17.796-13.8-16.448-4.86-26.95 11.04-30.162 14.47-4.29 4.61-12.717 18.49-16.978 24.4-4.27 5.9-16.75 21.54-20.652 26.25-5.44 6.55-24.624 35.16-28.1 39.34-2.716 3.28-5.844 6.31-9.228 6.18-2.956-.1-9.883-6.58-12.428-10.41-2.54-3.81-8.1-11.63-14.28-18.37-4.41-4.82-23.62-24.45-29.55-29.09-5.93-4.68-10.03-3.43-15.29-1.27S94.02 82.8 90.19 87.45c-3.81 4.67-38.95 39.38-43.62 44.46-4.66 5.08-14.47 16.5-16.08 18.64-1.65 2.13-2.98 4.233-2.98 6.35 0 2.105 3.39 6.347 8.48 7.18 5.06.855 12.18 1.274 15.01-.122 2.2-1.09 4.47-3.26 6.57-6.24 2.12-2.96 6.94-9.85 9.29-12.15 3.54-3.46 35.05-33.99 37.59-37.38 2.53-3.377 5.64-6.368 8.17-6.368 2.54 0 4.23 1.7 5.07 2.99.85 1.254 3.97 5.162 5.17 6.503 1.75 1.97 6.36 6.566 8 8.3 3.93 4.14 19.933 28.28 22.41 31.34 2.46 3.06 6.77 8.04 8.89 11 2.53 3.56 7.23 8 9.31 9.35 2.75 1.72 6.414 3.56 9.9 3.1 3.82-.485 7.71-2.7 9.823-5.65 2.12-3.005 10.07-13.846 12.74-17.76 2.48-3.57 9.035-10.62 14.536-20.35 5.5-9.756 13.98-23.28 19.05-29.22 5.09-5.92 13.6-16.79 17.82-23.136 4.22-6.35 7.79-10.75 10.35-14.128 3.06-4.06 5.48-5.12 8.25-6.37 3.37-1.51 8.06-.8 10.15.96 2.69 2.3 10.29 13.34 15.37 22.65 5.08 9.31 21.13 30.2 24.03 34.07 4.01 5.37 14.27 17.68 18.09 22.78 3.82 5.06 21.92 29.05 26.02 33.3 3.9 4.06 11.53 6.87 19.16 7.73 7.61.84 21.02-.05 33.02-6.61 11.98-6.6 51.09-29.37 62.88-35.55 9.37-4.9 43.57-25.16 58.34-33.09 4.74-2.54 16.71-9.04 19.48-10.32 9.07-4.25 22.82-9.91 30.13-12.43 14.91-5.12 33.24-7.14 48.6-8.67 8.48-.84 26.2-1.78 35.47-3.65 2.74-.55 9.32-3.11 9.32-7.48 0-10.9-42.53-9.71-53.16-8.98" fill="#231f20"/><path d="M628.35 48.29c-9.995.69-28.118 2.693-41.47 5.486-11.21 2.348-33.184 8.315-50.02 15.84-15.155 6.773-48.676 25.04-54.17 27.56-5.51 2.557-51.17 25.41-60.07 29.233-8.904 3.81-22.768 11.67-35.192 10.08-8.392-1.08-13.028-2.38-17.57-6.45-4.354-3.9-5.82-5.8-8.646-10-3.923-5.85-23.857-31.88-27.7-38.47-2.56-4.41-27.793-45.66-33.03-52.67-3.39-4.52-12.354-12.18-17.797-13.79-16.448-4.85-26.95 11.04-30.16 14.47-4.29 4.61-12.718 18.49-16.98 24.4-4.27 5.9-16.75 21.54-20.653 26.25-5.437 6.56-24.623 35.16-28.1 39.35-2.715 3.28-5.844 6.31-9.227 6.18-2.956-.1-9.882-6.59-12.428-10.41-2.534-3.81-8.09-11.64-14.274-18.38-4.41-4.81-23.62-24.44-29.552-29.09-5.92-4.68-10.02-3.43-15.28-1.27-5.25 2.16-14.56 11.9-18.39 16.54-3.81 4.67-38.95 39.38-43.62 44.46-4.65 5.08-14.46 16.5-16.07 18.63-1.64 2.14-2.98 4.24-2.98 6.36 0 2.1 3.39 6.35 8.48 7.18 5.07.86 12.18 1.28 15.01-.12 2.21-1.09 4.47-3.26 6.58-6.24 2.12-2.96 6.95-9.85 9.3-12.15 3.54-3.46 35.06-33.99 37.59-37.38 2.54-3.38 5.65-6.37 8.18-6.37 2.55 0 4.24 1.7 5.08 2.99.86 1.25 3.97 5.16 5.17 6.5 1.75 1.97 6.37 6.56 8.01 8.3 3.93 4.14 19.94 28.28 22.41 31.34 2.47 3.06 6.77 8.04 8.89 11 2.53 3.56 7.23 8 9.31 9.35 2.76 1.72 6.42 3.56 9.91 3.1 3.82-.48 7.72-2.7 9.83-5.65 2.12-3 10.07-13.84 12.74-17.76 2.48-3.57 9.03-10.62 14.54-20.35 5.5-9.75 13.99-23.28 19.06-29.22 5.09-5.92 13.6-16.79 17.83-23.13 4.22-6.35 7.79-10.75 10.35-14.13 3.07-4.05 5.49-5.11 8.25-6.36 3.37-1.51 8.06-.8 10.15.95 2.7 2.3 10.29 13.34 15.37 22.65 5.09 9.312 21.13 30.21 24.03 34.07 4.01 5.37 14.27 17.68 18.09 22.776 3.83 5.07 21.92 29.05 26.03 33.3 3.9 4.054 11.53 6.87 19.16 7.73 7.61.84 21.02-.047 33.03-6.61 11.98-6.6 51.09-29.376 62.88-35.55 9.37-4.9 43.56-25.16 58.33-33.087 4.74-2.545 16.71-9.04 19.49-10.32 9.07-4.25 22.82-9.91 30.136-12.425 14.91-5.12 33.24-7.14 48.6-8.668 8.47-.85 26.2-1.78 35.47-3.65 2.74-.55 9.32-3.11 9.32-7.49 0-10.9-42.53-9.71-53.16-8.98" fill="#fbbc09"/><path d="M329.385 418.965h-26.958v-20.742h-6.868v47.974h6.86V425.32h26.96v20.877h6.87v-47.974h-6.87zm44.036 11.195c0-4.922-1.24-8.848-3.74-11.78-2.49-2.93-5.84-4.395-10.03-4.395-4.35 0-7.88 1.506-10.61 4.516-2.72 3.02-4.08 6.92-4.08 11.73 0 3.21.65 6.03 1.94 8.47 1.3 2.44 3.02 4.38 5.17 5.82 2.15 1.44 4.97 2.16 8.45 2.16 2.54 0 4.76-.27 6.65-.82 1.89-.55 3.8-1.46 5.72-2.74V437c-3.48 2.565-7.28 3.846-11.4 3.846-2.95 0-5.36-.89-7.23-2.68-1.86-1.78-2.88-4.184-3.04-7.21h22.22zm-19.28-8.723c1.43-1.35 3.27-2.025 5.51-2.025 2.25 0 4.03.675 5.36 2.025 1.33 1.35 2.07 3.275 2.23 5.77h-15.9c.44-2.495 1.37-4.42 2.8-5.77zm46.98.362c-.15-.96-.49-1.9-1.04-2.86-.55-.95-1.17-1.71-1.85-2.29-2.06-1.79-4.79-2.68-8.2-2.68-4.55 0-8.04 1.43-10.47 4.29v6.83c3.23-3.53 6.55-5.29 9.96-5.29 3.8 0 5.7 1.9 5.7 5.7v1.68l-8 2.75c-2.63.91-4.67 2.15-6.1 3.72-1.43 1.57-2.14 3.35-2.14 5.34 0 2.19.74 4.02 2.2 5.47 1.47 1.46 3.3 2.18 5.5 2.18 3 0 5.83-1.03 8.48-3.09.49 2.11 2.06 3.16 4.74 3.16.94 0 1.84-.17 2.7-.5.86-.33 2-.96 3.42-1.87v-3.81c-1.6 1.12-2.78 1.68-3.54 1.68-.73 0-1.1-.54-1.1-1.62v-13.4c0-2.66-.07-4.46-.22-5.41zm-11.45 20.58c-1.32 0-2.41-.41-3.24-1.24-.83-.83-1.25-1.89-1.25-3.2 0-1.29.44-2.36 1.32-3.21.88-.86 2.39-1.71 4.52-2.56l4.19-1.62v9.37c-1.69 1.63-3.53 2.44-5.53 2.44zm17.12-22.15h5.5v14.01c0 2.86.14 4.8.4 5.82.27 1.02.59 1.84.98 2.47.39.63.88 1.19 1.48 1.7 1.9 1.67 4.29 2.5 7.15 2.5 2.84 0 5.46-.68 7.86-2.03v-5.84c-2.49 1.48-4.86 2.23-7.1 2.23-3 0-4.5-1.81-4.5-5.42v-15.46h10v-5.63h-9.99v-6.53l-11.75 11.54zm29.29-17.81c-.73.74-1.1 1.59-1.1 2.56 0 .98.37 1.85 1.1 2.59.73.74 1.58 1.11 2.54 1.11 1.03 0 1.91-.37 2.65-1.1.74-.74 1.1-1.61 1.1-2.62 0-1.03-.36-1.9-1.1-2.61-.73-.71-1.61-1.06-2.64-1.06-.96 0-1.81.37-2.54 1.11zm-.55 43.76h6.25V414.6h-6.25zm15.32-31.59v31.59h6.39v-22.56c2.06-2.96 4.57-4.43 7.52-4.43 2.32 0 3.97.69 4.95 2.08.99 1.38 1.48 3.69 1.48 6.92v17.99h6.25v-18.06c0-3.85-.44-6.66-1.32-8.43-.88-1.78-2.17-3.17-3.86-4.19-1.69-1.02-3.52-1.53-5.49-1.53-3.55 0-6.72 1.54-9.51 4.63v-4.02zm40.7 20.91c-1.53.39-2.75.99-3.65 1.82-.9.82-1.35 1.74-1.35 2.74 0 1.33 1.06 2.67 3.16 4.02-5.29 1.23-7.93 3.99-7.93 8.28 0 3.02 1.35 5.43 4.04 7.22s6.29 2.69 10.8 2.69c4.47 0 8.03-.89 10.7-2.68s4-4.18 4-7.18c0-2.29-.75-4.19-2.26-5.7-.89-.9-1.89-1.58-3-2.06-1.11-.49-3.6-1.15-7.47-2-2.31-.51-3.91-.99-4.79-1.46-.88-.47-1.32-1.07-1.32-1.81 0-1.28 1.18-2.1 3.54-2.44 3.37-.5 5.79-1.18 7.26-2.03 1.48-.85 2.69-2.07 3.63-3.66.94-1.59 1.41-3.21 1.41-4.86 0-1.32-.24-2.5-.72-3.53-.48-1.03-1.34-2.18-2.58-3.44h6.39v-4.87h-13.02c-4.26 0-7.62.98-10.08 2.93-2.46 1.96-3.69 4.62-3.69 7.98 0 4.6 2.33 7.93 6.97 9.99zm9.24-13.84c1.19 1.1 1.79 2.47 1.79 4.12 0 1.62-.59 2.98-1.76 4.06-1.18 1.09-2.65 1.63-4.41 1.63-1.78 0-3.26-.54-4.43-1.6-1.17-1.07-1.75-2.41-1.75-4.04 0-1.61.6-2.98 1.79-4.12 1.19-1.15 2.63-1.72 4.33-1.72 1.78 0 3.27.55 4.46 1.65zm1.51 27.38c1.93.93 2.89 2.12 2.89 3.59 0 1.49-.76 2.64-2.28 3.45-1.52.81-3.67 1.22-6.44 1.22-5.86 0-8.79-1.63-8.79-4.88 0-1.4.67-2.54 2.01-3.44 1.34-.89 3.06-1.34 5.17-1.34 3.04 0 5.53.46 7.45 1.39zm13.52-9.32c-.8.8-1.2 1.78-1.2 2.95 0 1.14.4 2.1 1.2 2.88.8.77 1.79 1.16 2.96 1.16 1.19 0 2.19-.39 3.01-1.17.82-.78 1.22-1.74 1.22-2.89 0-1.17-.41-2.15-1.23-2.95-.82-.8-1.82-1.21-2.99-1.21-1.17 0-2.15.4-2.95 1.2zm46.68-7.83l-14.43-33.69h-6.91l20.67 48.18h1.56l20.29-48.18h-6.84zm48.41-1.75c0-4.93-1.25-8.85-3.74-11.78-2.49-2.93-5.83-4.4-10.02-4.4-4.35 0-7.89 1.5-10.61 4.51s-4.09 6.92-4.09 11.73c0 3.2.65 6.02 1.94 8.46 1.3 2.44 3.02 4.38 5.17 5.82 2.15 1.44 4.97 2.16 8.45 2.16 2.54 0 4.76-.27 6.65-.82 1.89-.55 3.8-1.46 5.72-2.74v-6.12c-3.48 2.56-7.28 3.84-11.4 3.84-2.95 0-5.36-.9-7.23-2.68-1.87-1.79-2.88-4.19-3.04-7.21h22.21zm-19.28-8.73c1.43-1.35 3.27-2.03 5.52-2.03s4.03.67 5.36 2.02 2.07 3.28 2.23 5.77h-15.9c.44-2.49 1.37-4.42 2.8-5.77zm26.72-6.84v31.59h6.39V423.6c2.06-2.956 4.57-4.434 7.52-4.434 2.31 0 3.96.697 4.95 2.08.99 1.39 1.48 3.69 1.48 6.92v18h6.25v-18.06c0-3.847-.44-6.658-1.32-8.43-.88-1.776-2.17-3.17-3.86-4.19-1.69-1.02-3.52-1.53-5.49-1.53-3.55 0-6.72 1.546-9.52 4.636v-4.02zm31.13 5.63h5.49v14.01c0 2.86.13 4.8.4 5.82.26 1.02.59 1.84.98 2.47.39.63.88 1.19 1.48 1.7 1.9 1.67 4.28 2.5 7.15 2.5 2.84 0 5.46-.68 7.86-2.03v-5.84c-2.5 1.49-4.87 2.23-7.11 2.23-3 0-4.5-1.81-4.5-5.42V420.2h9.99v-5.63h-9.99v-6.524L649.46 419.6zm29.28-17.81c-.73.74-1.1 1.59-1.1 2.56 0 .98.37 1.85 1.1 2.59.73.74 1.58 1.11 2.54 1.11 1.03 0 1.91-.37 2.65-1.1.74-.74 1.1-1.61 1.1-2.61 0-1.03-.36-1.9-1.09-2.61-.73-.71-1.61-1.07-2.64-1.07-.96 0-1.81.37-2.54 1.11zm-.55 43.76h6.25V414.6h-6.25zm15.31-31.59v31.59h6.39V423.6c2.06-2.95 4.57-4.43 7.52-4.43 2.31 0 3.96.695 4.95 2.08.98 1.383 1.48 3.69 1.48 6.92v17.992h6.25v-18.06c0-3.844-.44-6.655-1.32-8.43-.88-1.773-2.17-3.17-3.86-4.19-1.69-1.017-3.52-1.527-5.49-1.527-3.55 0-6.72 1.544-9.51 4.634v-4.01zm40.7 20.91c-1.53.39-2.75 1-3.65 1.82-.9.82-1.36 1.74-1.36 2.75 0 1.33 1.05 2.67 3.16 4.02-5.28 1.24-7.93 4-7.93 8.28 0 3.02 1.35 5.43 4.04 7.23 2.69 1.79 6.29 2.69 10.8 2.69 4.47 0 8.03-.89 10.7-2.68 2.67-1.78 4-4.18 4-7.18 0-2.29-.76-4.19-2.27-5.7-.89-.89-1.89-1.58-3-2.06s-3.6-1.14-7.47-1.99c-2.31-.5-3.9-.99-4.79-1.46-.88-.47-1.32-1.07-1.32-1.8 0-1.28 1.18-2.1 3.54-2.44 3.37-.5 5.79-1.18 7.26-2.03 1.48-.85 2.69-2.07 3.63-3.66.94-1.59 1.41-3.21 1.41-4.86 0-1.33-.24-2.51-.72-3.54-.48-1.03-1.34-2.174-2.57-3.434h6.39v-4.88H741c-4.26 0-7.62.98-10.08 2.94-2.462 1.96-3.69 4.62-3.69 7.99 0 4.6 2.32 7.93 6.97 9.99zm9.24-13.84c1.19 1.1 1.79 2.47 1.79 4.12 0 1.62-.59 2.98-1.77 4.06-1.17 1.09-2.65 1.63-4.41 1.63-1.78 0-3.26-.54-4.43-1.6-1.17-1.07-1.75-2.41-1.75-4.04 0-1.6.6-2.98 1.79-4.12 1.19-1.15 2.63-1.72 4.33-1.72 1.79 0 3.27.55 4.46 1.65zm1.51 27.39c1.92.93 2.88 2.13 2.88 3.59 0 1.49-.76 2.64-2.28 3.45-1.52.82-3.67 1.22-6.44 1.22-5.86 0-8.79-1.62-8.79-4.87 0-1.4.67-2.54 2.01-3.44 1.34-.89 3.06-1.34 5.17-1.34 3.04 0 5.53.46 7.45 1.39zm13.51-9.32c-.8.8-1.2 1.79-1.2 2.95 0 1.14.4 2.1 1.2 2.88.8.78 1.79 1.17 2.96 1.17 1.19 0 2.19-.39 3-1.17.81-.78 1.22-1.74 1.22-2.89 0-1.17-.41-2.15-1.24-2.95-.82-.8-1.82-1.2-2.98-1.2s-2.15.4-2.95 1.2zm32.73 6.46h28.47v-6.25h-21.6V398.2h-6.87zm34.69-43.77c-.73.74-1.09 1.59-1.09 2.56 0 .98.37 1.85 1.1 2.59.74.74 1.58 1.12 2.54 1.12 1.03 0 1.91-.37 2.65-1.1.74-.74 1.1-1.61 1.1-2.61 0-1.03-.36-1.9-1.1-2.61-.73-.71-1.61-1.07-2.64-1.07-.96 0-1.81.37-2.54 1.11zm-.55 43.76h6.25V414.6h-6.25zM852.14 434l-8.53-19.44h-6.84l14.29 32.14h2.12l13.95-32.14h-6.77zm20.73-31.61c-.73.74-1.1 1.59-1.1 2.55 0 .985.37 1.85 1.1 2.59.73.74 1.58 1.12 2.54 1.12 1.03 0 1.91-.37 2.65-1.1.736-.74 1.1-1.61 1.1-2.61 0-1.03-.364-1.9-1.1-2.61-.73-.71-1.61-1.07-2.64-1.07-.96 0-1.807.37-2.54 1.115zm-.55 43.76h6.25V414.6h-6.25zm15.31-31.59v31.59H894V423.6c2.06-2.952 4.567-4.43 7.52-4.43 2.312 0 3.962.697 4.946 2.08.984 1.386 1.477 3.69 1.477 6.92v18h6.25V428.1c0-3.845-.446-6.656-1.327-8.43-.88-1.774-2.17-3.17-3.86-4.19-1.694-1.02-3.524-1.53-5.494-1.53-3.55 0-6.72 1.548-9.514 4.638v-4.02zm40.7 20.91c-1.54.39-2.75.997-3.66 1.82-.9.825-1.36 1.74-1.36 2.75 0 1.33 1.06 2.67 3.16 4.02-5.29 1.233-7.93 3.992-7.93 8.274 0 3.02 1.35 5.43 4.04 7.23 2.69 1.79 6.29 2.69 10.8 2.69 4.47 0 8.03-.89 10.7-2.68 2.67-1.786 4-4.177 4-7.177 0-2.29-.76-4.19-2.27-5.7-.89-.897-1.89-1.58-3-2.06-1.11-.486-3.6-1.15-7.47-1.996-2.31-.5-3.91-.99-4.79-1.46-.88-.46-1.32-1.07-1.32-1.8 0-1.28 1.18-2.09 3.53-2.44 3.366-.5 5.787-1.17 7.26-2.02 1.48-.85 2.686-2.07 3.625-3.66.94-1.59 1.41-3.21 1.41-4.86 0-1.33-.24-2.51-.72-3.53-.484-1.03-1.34-2.17-2.58-3.43h6.38v-4.88H935.1c-4.26 0-7.62.98-10.08 2.94s-3.69 4.62-3.69 7.98c0 4.6 2.323 7.93 6.97 9.99zm9.24-13.84c1.19 1.1 1.79 2.474 1.79 4.123 0 1.62-.59 2.98-1.77 4.065-1.18 1.09-2.65 1.63-4.41 1.63-1.788 0-3.26-.53-4.43-1.593-1.17-1.07-1.75-2.41-1.75-4.04 0-1.605.59-2.98 1.78-4.12 1.19-1.147 2.637-1.72 4.33-1.72 1.787 0 3.275.55 4.465 1.65zm1.51 27.39c1.93.93 2.89 2.123 2.89 3.59 0 1.486-.76 2.64-2.28 3.45-1.52.812-3.67 1.22-6.44 1.22-5.86 0-8.79-1.628-8.79-4.878 0-1.4.67-2.54 2.01-3.437 1.34-.89 3.06-1.34 5.168-1.34 3.046 0 5.53.465 7.45 1.39zm13.52-9.32c-.8.8-1.2 1.78-1.2 2.95 0 1.146.4 2.107 1.2 2.885.8.78 1.78 1.17 2.95 1.17 1.19 0 2.19-.39 3.002-1.17.81-.78 1.22-1.74 1.22-2.886 0-1.17-.414-2.15-1.24-2.96-.825-.81-1.82-1.21-2.99-1.21s-2.155.4-2.956 1.2" fill="#231f20"/></svg>